Simulation
nRows=28
nColumns=15
endheader
time  TH_x TH_y TH_z SC_y  SC_z  SC_x  AC_y  AC_z  AC_x  GH_y  GH_z  GH_yy  EL_x  PS_y
0.0  0.000000  0.000000  0.000000  -18.013182388814442  -1.1506711909701122  1.0909936384561734  59.77225387057291  4.609016194815746  -8.701290687190488  3.9411972962129114  18.031334794172498  27.823481581517633  29.814993593306905  120.000000
0.03  0.000000  0.000000  0.000000  -17.965241900421816  -0.6202687248189498  1.4664303629647482  59.983271793952824  4.940784591278841  -8.421360246251476  5.517182463452341  18.554062671704447  24.873879087391934  30.025305467437114  120.000000
0.06  0.000000  0.000000  0.000000  -18.02642677290875  -0.19552798288775017  1.7715231664558808  60.250744933229115  5.197075652581753  -8.129580231005447  7.101448063169842  19.066390988924777  21.9018057447561  30.267422720246074  120.000000
0.09  0.000000  0.000000  0.000000  -18.182657510300555  0.11778123118589967  2.0289609759861467  60.61328820543547  5.433619988333215  -7.8306386422035015  8.6959967236935  19.633973465404495  18.895211076501305  30.54207011725707  120.000000
0.12  0.000000  0.000000  0.000000  -18.43482988625076  0.3358957138835207  2.2544048554719396  61.08194535873506  5.676481873013315  -7.5252169456364815  10.28387716703394  20.29911481771525  15.831549312548546  30.869412540522386  120.000000
0.15  0.000000  0.000000  0.000000  -18.75064941828728  0.48679075323731114  2.4600301547372503  61.63795353180894  5.9433077592101675  -7.213381733587834  11.851995749875035  21.0855876121594  12.712748973449047  31.253265608410665  120.000000
0.18  0.000000  0.000000  0.000000  -19.107904507780123  0.5950895472762294  2.6525025013096175  62.25881554925476  6.243428345331311  -6.89284724231384  13.385852873801246  22.008633766003502  9.553450207118923  31.697604120645813  120.000000
0.21  0.000000  0.000000  0.000000  -19.480202255934415  0.6835372255994885  2.8315078710575605  62.91990729219462  6.577469226189075  -6.559285876415705  14.866599944501395  23.07080014825138  6.374232381651948  32.19852001186304  120.000000
0.24  0.000000  0.000000  0.000000  -19.84389208865299  0.7689799266711348  2.994539021249078  63.59615929921533  6.943057168663962  -6.209951488503823  16.27684705137483  24.26363942111277  3.2054029988057753  32.74607773488799  120.000000
0.27  0.000000  0.000000  0.000000  -20.182803051376194  0.8628380692653727  3.1389709778989157  64.26795283605847  7.338675092489253  -5.844865904510718  17.59928508259264  25.570331345209414  0.07833784984303639  33.330206726877144  120.000000
0.3  0.000000  0.000000  0.000000  -20.488582035959787  0.9719509721428301  3.2645562783520634  64.92026553956813  7.766133832965342  -5.4662446826788464  18.81993918300275  26.96879489594786  -2.9762921119615013  33.93818489046161  120.000000
0.32999999999999996  0.000000  0.000000  0.000000  -20.762157042345315  1.099041499305796  3.3735336511250815  65.54472242428318  8.231134039686118  -5.079696857116254  19.927768843123715  28.435813374079665  -5.936941921117167  34.557312862411116  120.000000
0.36  0.000000  0.000000  0.000000  -21.013961078854987  1.245366282694295  3.4700776933770086  66.1374818368726  8.740493468846608  -4.690247719082993  20.916960919740262  29.948608995061004  -8.79424056623913  35.175999551103374  120.000000
0.39  0.000000  0.000000  0.000000  -21.25989178135092  1.4090744234418728  3.5582912297025744  66.69899522413783  9.299281144232825  -4.3032864865664395  21.78737778200309  31.485889479184095  -11.552431945122127  35.783378365001106  120.000000
0.42  0.000000  0.000000  0.000000  -21.518403448669854  1.5848521973696712  3.6417562748246524  67.23244794327248  9.909652528083392  -3.9245875389682747  22.544793681543545  33.02649091983267  -14.22419603257144  36.36944258143069  120.000000
0.44999999999999996  0.000000  0.000000  0.000000  -21.808085202482815  1.7670886145086326  3.7231199619434525  67.74117162871546  10.570090431286758  -3.559145538237055  23.199514510296652  34.55061333628977  -16.823106774123886  36.92606793818255  120.000000
0.48  0.000000  0.000000  0.000000  -22.14275481228103  1.9511941066289717  3.8047233421638977  68.227238033674  11.276009675143815  -3.2102348023213825  23.763101756515788  36.04005470275405  -19.356681194744112  37.446646765232714  120.000000
0.51  0.000000  0.000000  0.000000  -22.526830750171772  2.1333627909807533  3.888220610625008  68.69112660830159  12.019632112179176  -2.8794810245899836  24.244712815354205  37.480720948682134  -21.82130733283358  37.924958037537934  120.000000
0.54  0.000000  0.000000  0.000000  -22.954047726796084  2.310929475032842  3.9739986728976247  69.13276817447036  12.789756058019863  -2.5660033558065805  24.648974540456226  38.86372430109542  -24.2015086419662  38.35525584237795  120.000000
0.57  0.000000  0.000000  0.000000  -23.409010365090534  2.482659143286612  4.060593172079833  69.55152944001415  13.571784407203891  -2.2658703906534194  24.97584697794453  40.1855706435237  -26.47194301941763  38.732284827228625  120.000000
0.6  0.000000  0.000000  0.000000  -23.871968046032126  2.6483109961858657  4.144487907359013  69.94767602915073  14.349295952667202  -1.9733275898599172  25.22257596728173  41.447377445582795  -28.60320625365203  39.05152283403158  120.000000
0.63  0.000000  0.000000  0.000000  -24.324163263291894  2.8083299072422356  4.220931483034847  70.32213181143732  15.106195190610359  -1.682127221946749  25.38612859054145  42.653351736948785  -30.567281413822517  39.30991757002795  120.000000
0.6599999999999999  0.000000  0.000000  0.000000  -24.75168173956542  2.9636698582388386  4.285187133179651  70.67658115076487  15.828836417950814  -1.3876547591719053  25.465883253398854  43.8094323277608  -32.343560651635435  39.506220914745406  120.000000
0.69  0.000000  0.000000  0.000000  -25.147064683218925  3.115453647930667  4.3344438869766275  71.01233498518107  16.507151223498997  -1.087682125549236  25.465528133368483  44.9213145700726  -33.92127830460587  39.64112645655223  120.000000
0.72  0.000000  0.000000  0.000000  -25.50829481802974  3.264466383036718  4.3685318630959316  71.33046399183908  17.134724643942228  -0.783320306216667  25.39356977281936  45.99375788420606  -35.30062901133216  39.71688762480679  120.000000
0.75  0.000000  0.000000  0.000000  -25.836995103559957  3.4109371236657657  4.389855527113196  71.63143906014383  17.70840472938628  -0.4776565666796786  25.262373679936807  47.02947255682213  -36.49061394081947  39.73741012057919  120.000000
0.78  0.000000  0.000000  0.000000  -26.136454672758283  3.554522099994379  4.402454224621227  71.91563757387499  18.22753595815401  -0.17534401604206315  25.086598647332266  48.02954025053498  -37.50675612686847  39.70808479894809  120.000000
0.8099999999999999  0.000000  0.000000  0.000000  -26.41022341659341  3.6943292772348255  4.411578629114193  72.18315614470065  18.693230131789473  0.11878105238902566  24.88122467798136  48.992852279613984  -38.3671986294102  39.63575324603038  120.000000
